# xmcd
#
# Track frame offsets: 
#        150
#        12062
#        22007
#        33645
#        46052
#        57771
#        70998
#        80406
#        90699
#        100499
#        113859
#        121634
#        133493
#        143296
#        156333
#        169579
#        179525
#        189080
#        199879
#        210702
#        220805
#        229576
#        240423
#        250270
#        263163
#        274200
#        284501
#        298459
#        309592
#        318567
#
# Disc length: 4328 seconds
#
# Revision: 0
# Processed by: cddbd v1.5.1PL0 Copyright (c) Steve Scherf et al.
# Submitted via: ExactAudioCopy v0.95a4
#
DISCID=bb10e61e
DTITLE=Various Artist - Detroit In The 50's Vol. Four
DYEAR=1900
DGENRE=Country
TTITLE0=Hugh Farr And Virginia Vagabonds - I Can't Stay Mad At You
TTITLE1=Roy Rector - Heard The Back Door Slam
TTITLE2=Roy Rector - You're The Girl I'm Gonna Marry
TTITLE3=Rufus Shoffner and Joyce Songer - Every Little Raindrop
TTITLE4=Rufus Shoffner and Joyce Songer - It Always Happens To Me
TTITLE5=Bill Hicks And The Southerneers - She's Done Gone
TTITLE6=Bill Hicks And The Southerneers - Blue Flame
TTITLE7=Johnny Buckett And His Cumberland River Boys - Griddle Greasin
TTITLE7=g Daddy
TTITLE8=Jimmy Lee - You Ain't No Good For Me
TTITLE9=Matt Huston And His Arkansas Playboys - Sentimental Man
TTITLE10=Bill Hicks And The Southerneers - Sugar Coated Lies
TTITLE11=Big Chief Redbird And His Cherokee Braves - Big Chief Yodel
TTITLE12=Ralph Davis And The Western Rhythm Boys - Undecided Heart
TTITLE13=Don Rader And The 20th Century Ranch Hands - A Day At The Pin
TTITLE13=es
TTITLE14=Chuck Hatfield And The Treble-Aires - Steel Wool (Inst.)
TTITLE15=Ray Taylor And The Alabama Pals - I'll Never Let You Weary My
TTITLE15=Mind Any More
TTITLE16=Rufus Shoffner and Speedy Rodgers - Lovelight
TTITLE17=Rufus Shoffner and Joyce Songer - Save It! Save It!
TTITLE18=Cherokee Chief - Whose Heart Are You Breaking Now
TTITLE19=Cherokee Chief - Mean And Evil Blues
TTITLE20=Patti Lynn - Same Old Blues
TTITLE21=Bobby Bernell - Move Over Big Dog (Let A Little Dog In)
TTITLE22=Jimmy Click - Polecat Hollow
TTITLE23=Candy Mountain Boys - It's Hillbilly Christmas (Every Saturda
TTITLE23=y)
TTITLE24=Curley Dan and Wilma Ann And The Danville Mt. Boys - North On 2
TTITLE24=3
TTITLE25=Loyd Howell And The Brite Stars - Truck Driving Jack
TTITLE26=Victor Norwin - Long Gone Lonesome Blues
TTITLE27=Danny Richards And the Country Rhythm Boys - One Way Ticket T
TTITLE27=o Tennessee
TTITLE28=Rufus Shoffner and Joyce Songer - Get On The Ball
TTITLE29=Herb and Joe And Their Rambl-airs - Hill Slide Breakdown (Inst.
TTITLE29=)
EXTD=
EXTT0=
EXTT1=
EXTT2=
EXTT3=
EXTT4=
EXTT5=
EXTT6=
EXTT7=
EXTT8=
EXTT9=
EXTT10=
EXTT11=
EXTT12=
EXTT13=
EXTT14=
EXTT15=
EXTT16=
EXTT17=
EXTT18=
EXTT19=
EXTT20=
EXTT21=
EXTT22=
EXTT23=
EXTT24=
EXTT25=
EXTT26=
EXTT27=
EXTT28=
EXTT29=
PLAYORDER=
